<svg width="270" height="82" viewBox="0 0 270 82" fill="none" xmlns="http://www.w3.org/2000/svg">
<path d="M49.7891 0V41.5198C49.7891 41.5198 55.0194 42.1787 56.1565 43.0907V9.57571C56.1565 9.57571 53.655 2.73592 49.7891 0Z" fill="url(#paint0_linear_1226_6863)"/>
<path d="M59.5 29.8667L59.5659 45.5982C59.5659 45.5982 62.2607 48.5097 62.6178 50.931L64.1141 36.9345L59.5 29.8667Z" fill="url(#paint1_linear_1226_6863)"/>
<path d="M49.7871 45.5164V62.2419L52.0612 47.8784L49.7871 45.5164Z" fill="url(#paint2_linear_1226_6863)"/>
<path d="M49.1057 0V41.5198C49.1057 41.5198 43.8753 42.1787 42.7383 43.0907V9.57571C42.7383 9.57571 45.2398 2.73592 49.1057 0Z" fill="url(#paint3_linear_1226_6863)"/>
<path d="M39.3911 29.8667L39.3274 45.5982C39.3274 45.5982 36.6349 48.5097 36.2734 50.931L34.7793 36.9345L39.3911 29.8667Z" fill="url(#paint4_linear_1226_6863)"/>
<path d="M49.1041 45.5164V62.2419L46.8301 47.8784L49.1041 45.5164Z" fill="url(#paint5_linear_1226_6863)"/>
<path d="M80.5933 26.1758L76.8502 21.0164C76.8502 21.0164 97.8989 17.2636 98.8359 23.8298C99.7728 30.396 89.0119 37.8992 80.5933 43.0587C72.1747 48.2182 60.9453 52.4384 60.9453 52.4384C60.9453 52.4384 84.3341 38.8386 86.2102 36.9622C88.0863 35.0858 94.1695 30.396 92.2911 27.5826C90.4127 24.7691 80.5933 26.1758 80.5933 26.1758Z" fill="url(#paint6_linear_1226_6863)"/>
<path d="M44.5615 69.4717C44.5481 69.4748 44.5341 69.4748 44.5206 69.4717C43.5333 69.2984 42.5557 69.0739 41.5916 68.7991L41.5052 68.7763C28.8341 65.1102 19.549 53.2135 19.549 39.1053C19.549 24.8945 28.9705 12.9271 41.7849 9.36133C25.548 13.0685 13.4181 27.863 13.4181 45.5575C13.4022 50.8802 14.5237 56.1445 16.707 60.9963C18.8903 65.848 22.0848 70.1747 26.0756 73.685C26.9147 74.4305 27.7903 75.1282 28.6931 75.7871L28.7158 75.8031C30.7737 77.301 32.9843 78.5758 35.3106 79.606C35.3291 79.6146 35.3481 79.6222 35.3675 79.6288C37.8007 80.7052 40.3481 81.5007 42.9606 81.9999L43.122 81.5097L47.0948 69.8068C46.2421 69.7339 45.3961 69.6244 44.5615 69.4717Z" fill="url(#paint7_linear_1226_6863)"/>
<path d="M57.7117 9.34766C70.5284 12.9135 79.9476 24.8808 79.9476 39.0916C79.9476 53.1292 70.7581 64.9711 58.1893 68.7011L58.1484 68.717C57.2183 68.9906 56.2631 69.2209 55.2989 69.401H55.2535C54.4348 69.553 53.6055 69.6738 52.7656 69.7635L56.7521 81.4869L56.8908 81.9042C59.4746 81.3826 61.9918 80.572 64.3952 79.4874L64.4521 79.4623C66.7407 78.4262 68.9152 77.1531 70.94 75.664C70.9486 75.6584 70.9563 75.6515 70.9627 75.6435C71.8496 74.996 72.7039 74.3067 73.5256 73.5756C77.4864 70.0648 80.6548 65.7474 82.8195 60.9116C84.9841 56.0759 86.0951 50.8328 86.0785 45.5324C86.0785 27.8538 73.9486 13.0594 57.7117 9.34766Z" fill="url(#paint8_linear_1226_6863)"/>
<path d="M48.8004 64.8052L47.0972 69.8073L43.1198 81.5011L42.9584 81.9913C40.3458 81.4921 37.7984 80.6966 35.3652 79.6202L44.5616 69.4722L48.6685 64.9465L48.8004 64.8052Z" fill="url(#paint9_linear_1226_6863)"/>
<path d="M48.6705 64.9463L44.5226 69.4651L37.0181 77.6501L35.3194 79.5971C32.9932 78.5669 30.7825 77.2922 28.7246 75.7942L41.6095 68.7925L41.8551 68.6603L48.6705 64.9463Z" fill="url(#paint10_linear_1226_6863)"/>
<path d="M41.8384 68.6577L41.5928 68.7899L28.676 75.7779C27.7664 75.119 26.8977 74.4214 26.0586 73.6758L41.4882 68.7671L41.8384 68.6577Z" fill="#E15948"/>
<path d="M64.3964 79.5016L55.2501 69.4152L51.1999 64.9465L51.0703 64.8052L52.7622 69.7777L56.7487 81.5011L56.8874 81.9183" fill="url(#paint11_linear_1226_6863)"/>
<path d="M70.9401 75.6778C68.9153 77.167 66.7408 78.44 64.4522 79.4762L62.8603 77.6523L55.2945 69.4103L51.2012 64.9485L58.0234 68.6602L58.1371 68.724L70.9401 75.6778Z" fill="url(#paint12_linear_1226_6863)"/>
<path d="M73.5268 73.5892C72.7051 74.3188 71.8508 75.0081 70.9639 75.6571L58.1495 68.7216L58.0312 68.6577L58.1904 68.7056L73.5268 73.5892Z" fill="#E15948"/>
<path d="M18.2998 64.2233L22.0429 69.3828C22.0429 69.3828 0.994133 73.1355 0.0572164 66.5739C-0.8797 60.0123 9.8812 52.5045 18.2998 47.345C26.7184 42.1855 37.9478 37.9653 37.9478 37.9653C37.9478 37.9653 14.559 51.5606 12.6874 53.4369C10.8158 55.3133 4.72815 60.0031 6.60654 62.8166C8.48492 65.63 18.2998 64.2233 18.2998 64.2233Z" fill="url(#paint13_linear_1226_6863)"/>
<path d="M110.242 57.6733V57.0333L112.802 55.7133L123.042 31.0733H124.842L134.922 55.5933L137.602 57.0333V57.6733H127.682V57.0333L131.202 55.6733L128.202 48.2733H118.482L115.522 55.6733L118.882 57.0333V57.6733H110.242ZM119.402 46.0733H127.322L123.362 36.2333L119.402 46.0733ZM140.741 57.6733V57.0333L143.621 55.7133V37.2333L140.741 35.9133V35.2733H149.621C155.727 35.2733 158.781 37.3933 158.781 41.6333C158.781 42.9933 158.367 44.1667 157.541 45.1533C156.714 46.14 155.567 46.9 154.101 47.4333C152.661 47.94 150.994 48.1933 149.101 48.1933H147.021V55.7133L150.301 57.0333V57.6733H140.741ZM147.021 37.2733V46.1933H149.221C151.061 46.1933 152.514 45.8067 153.581 45.0333C154.674 44.2333 155.221 43.1133 155.221 41.6733C155.221 40.1 154.661 38.98 153.541 38.3133C152.447 37.62 150.927 37.2733 148.981 37.2733H147.021ZM175.075 58.0733C172.888 58.0733 170.928 57.58 169.195 56.5933C167.488 55.58 166.142 54.2067 165.155 52.4733C164.168 50.7133 163.675 48.7133 163.675 46.4733C163.675 44.2333 164.168 42.2333 165.155 40.4733C166.142 38.7133 167.488 37.34 169.195 36.3533C170.928 35.34 172.888 34.8333 175.075 34.8333C177.288 34.8333 179.248 35.34 180.955 36.3533C182.688 37.34 184.048 38.7133 185.035 40.4733C186.048 42.2333 186.555 44.2333 186.555 46.4733C186.555 48.7133 186.048 50.7133 185.035 52.4733C184.048 54.2067 182.688 55.58 180.955 56.5933C179.248 57.58 177.288 58.0733 175.075 58.0733ZM175.755 56.0733C178.048 56.0733 179.848 55.2867 181.155 53.7133C182.462 52.14 183.115 50.06 183.115 47.4733C183.115 45.3667 182.755 43.5133 182.035 41.9133C181.315 40.3133 180.302 39.0733 178.995 38.1933C177.715 37.2867 176.235 36.8333 174.555 36.8333C172.262 36.8333 170.448 37.6067 169.115 39.1533C167.782 40.7 167.115 42.7667 167.115 45.3533C167.115 47.4867 167.475 49.3667 168.195 50.9933C168.942 52.5933 169.955 53.8467 171.235 54.7533C172.542 55.6333 174.048 56.0733 175.755 56.0733ZM191.952 57.6733V57.0333L194.792 55.7133V37.2333L191.952 35.9133V35.2733H201.432V35.9133L198.192 37.2333V55.6733H206.872L209.232 49.9933H209.872V57.6733H191.952ZM214.881 57.6733V57.0333L217.721 55.7133V37.2333L214.881 35.9133V35.2733H224.361V35.9133L221.121 37.2333V55.6733H229.801L232.161 49.9933H232.801V57.6733H214.881ZM249.802 58.0733C247.615 58.0733 245.655 57.58 243.922 56.5933C242.215 55.58 240.868 54.2067 239.882 52.4733C238.895 50.7133 238.402 48.7133 238.402 46.4733C238.402 44.2333 238.895 42.2333 239.882 40.4733C240.868 38.7133 242.215 37.34 243.922 36.3533C245.655 35.34 247.615 34.8333 249.802 34.8333C252.015 34.8333 253.975 35.34 255.682 36.3533C257.415 37.34 258.775 38.7133 259.762 40.4733C260.775 42.2333 261.282 44.2333 261.282 46.4733C261.282 48.7133 260.775 50.7133 259.762 52.4733C258.775 54.2067 257.415 55.58 255.682 56.5933C253.975 57.58 252.015 58.0733 249.802 58.0733ZM250.482 56.0733C252.775 56.0733 254.575 55.2867 255.882 53.7133C257.188 52.14 257.842 50.06 257.842 47.4733C257.842 45.3667 257.482 43.5133 256.762 41.9133C256.042 40.3133 255.028 39.0733 253.722 38.1933C252.442 37.2867 250.962 36.8333 249.282 36.8333C246.988 36.8333 245.175 37.6067 243.842 39.1533C242.508 40.7 241.842 42.7667 241.842 45.3533C241.842 47.4867 242.202 49.3667 242.922 50.9933C243.668 52.5933 244.682 53.8467 245.962 54.7533C247.268 55.6333 248.775 56.0733 250.482 56.0733Z" fill="url(#paint14_linear_1226_6863)"/>
<defs>
<linearGradient id="paint0_linear_1226_6863" x1="49.7891" y1="21.5453" x2="56.1565" y2="21.5453" gradientUnits="userSpaceOnUse">
<stop stop-color="#E15948"/>
<stop offset="0.15" stop-color="#E36144"/>
<stop offset="0.38" stop-color="#E87538"/>
<stop offset="0.65" stop-color="#F09726"/>
<stop offset="0.84" stop-color="#F6B217"/>
</linearGradient>
<linearGradient id="paint1_linear_1226_6863" x1="59.5" y1="40.3977" x2="64.1141" y2="40.3977" gradientUnits="userSpaceOnUse">
<stop stop-color="#E15948"/>
<stop offset="0.15" stop-color="#E36144"/>
<stop offset="0.38" stop-color="#E87538"/>
<stop offset="0.65" stop-color="#F09726"/>
<stop offset="0.84" stop-color="#F6B217"/>
</linearGradient>
<linearGradient id="paint2_linear_1226_6863" x1="49.7871" y1="53.8791" x2="52.0612" y2="53.8791" gradientUnits="userSpaceOnUse">
<stop stop-color="#E15948"/>
<stop offset="0.15" stop-color="#E36144"/>
<stop offset="0.38" stop-color="#E87538"/>
<stop offset="0.65" stop-color="#F09726"/>
<stop offset="0.84" stop-color="#F6B217"/>
</linearGradient>
<linearGradient id="paint3_linear_1226_6863" x1="49.1057" y1="-21.2033" x2="42.7383" y2="-21.2033" gradientUnits="userSpaceOnUse">
<stop stop-color="#E15948"/>
<stop offset="0.15" stop-color="#E36144"/>
<stop offset="0.38" stop-color="#E87538"/>
<stop offset="0.65" stop-color="#F09726"/>
<stop offset="0.84" stop-color="#F6B217"/>
</linearGradient>
<linearGradient id="paint4_linear_1226_6863" x1="39.3911" y1="40.3977" x2="34.7793" y2="40.3977" gradientUnits="userSpaceOnUse">
<stop stop-color="#E15948"/>
<stop offset="0.15" stop-color="#E36144"/>
<stop offset="0.38" stop-color="#E87538"/>
<stop offset="0.65" stop-color="#F09726"/>
<stop offset="0.84" stop-color="#F6B217"/>
</linearGradient>
<linearGradient id="paint5_linear_1226_6863" x1="49.1064" y1="53.8791" x2="46.8324" y2="53.8791" gradientUnits="userSpaceOnUse">
<stop stop-color="#E15948"/>
<stop offset="0.15" stop-color="#E36144"/>
<stop offset="0.38" stop-color="#E87538"/>
<stop offset="0.65" stop-color="#F09726"/>
<stop offset="0.84" stop-color="#F6B217"/>
</linearGradient>
<linearGradient id="paint6_linear_1226_6863" x1="60.9453" y1="36.1939" x2="98.8927" y2="36.1939" gradientUnits="userSpaceOnUse">
<stop stop-color="#E15948"/>
<stop offset="0.15" stop-color="#E36144"/>
<stop offset="0.38" stop-color="#E87538"/>
<stop offset="0.65" stop-color="#F09726"/>
<stop offset="0.84" stop-color="#F6B217"/>
</linearGradient>
<linearGradient id="paint7_linear_1226_6863" x1="26.9943" y1="33.7999" x2="49.1926" y2="59.2056" gradientUnits="userSpaceOnUse">
<stop stop-color="#E15948"/>
<stop offset="0.15" stop-color="#E36144"/>
<stop offset="0.38" stop-color="#E87538"/>
<stop offset="0.65" stop-color="#F09726"/>
<stop offset="0.84" stop-color="#F6B217"/>
</linearGradient>
<linearGradient id="paint8_linear_1226_6863" x1="70.0713" y1="42.6939" x2="65.7355" y2="75.8139" gradientUnits="userSpaceOnUse">
<stop stop-color="#E15948"/>
<stop offset="0.15" stop-color="#E36144"/>
<stop offset="0.38" stop-color="#E87538"/>
<stop offset="0.65" stop-color="#F09726"/>
<stop offset="0.84" stop-color="#F6B217"/>
</linearGradient>
<linearGradient id="paint9_linear_1226_6863" x1="40.7343" y1="77.8943" x2="44.6819" y2="70.6184" gradientUnits="userSpaceOnUse">
<stop stop-color="#E15948"/>
<stop offset="0.18" stop-color="#E36144"/>
<stop offset="0.45" stop-color="#E87538"/>
<stop offset="0.78" stop-color="#F09726"/>
<stop offset="1" stop-color="#F6B217"/>
</linearGradient>
<linearGradient id="paint10_linear_1226_6863" x1="28.711" y1="72.2694" x2="48.6705" y2="72.2694" gradientUnits="userSpaceOnUse">
<stop stop-color="#E15948"/>
<stop offset="0.18" stop-color="#E36144"/>
<stop offset="0.45" stop-color="#E87538"/>
<stop offset="0.78" stop-color="#F09726"/>
<stop offset="1" stop-color="#F6B217"/>
</linearGradient>
<linearGradient id="paint11_linear_1226_6863" x1="60.5191" y1="80.4523" x2="54.6823" y2="68.4398" gradientUnits="userSpaceOnUse">
<stop stop-color="#E15948"/>
<stop offset="0.17" stop-color="#E36144"/>
<stop offset="0.44" stop-color="#E87538"/>
<stop offset="0.75" stop-color="#F09726"/>
<stop offset="0.97" stop-color="#F6B217"/>
</linearGradient>
<linearGradient id="paint12_linear_1226_6863" x1="67.1924" y1="78.7626" x2="55.5533" y2="62.7768" gradientUnits="userSpaceOnUse">
<stop stop-color="#E15948"/>
<stop offset="0.17" stop-color="#E36144"/>
<stop offset="0.44" stop-color="#E87538"/>
<stop offset="0.75" stop-color="#F09726"/>
<stop offset="0.97" stop-color="#F6B217"/>
</linearGradient>
<linearGradient id="paint13_linear_1226_6863" x1="0.000364707" y1="54.2053" x2="37.9478" y2="54.2053" gradientUnits="userSpaceOnUse">
<stop stop-color="#E15948"/>
<stop offset="0.15" stop-color="#E36144"/>
<stop offset="0.38" stop-color="#E87538"/>
<stop offset="0.65" stop-color="#F09726"/>
<stop offset="0.84" stop-color="#F6B217"/>
</linearGradient>
<linearGradient id="paint14_linear_1226_6863" x1="186.43" y1="40.4133" x2="186.43" y2="57.4233" gradientUnits="userSpaceOnUse">
<stop stop-color="#E15948"/>
<stop offset="1" stop-color="#EF902A"/>
</linearGradient>
</defs>
</svg>
