<?xml version="1.0" encoding="utf-8"?>
<!-- Generator: Adobe Illustrator 16.0.3, SVG Export Plug-In . SVG Version: 6.00 Build 0)  -->
<!DOCTYPE svg PUBLIC "-//W3C//DTD SVG 1.1//EN" "http://www.w3.org/Graphics/SVG/1.1/DTD/svg11.dtd">
<svg version="1.1" id="Revive_x5F_primary" xmlns="http://www.w3.org/2000/svg" xmlns:xlink="http://www.w3.org/1999/xlink" x="0px"
	 y="0px" width="2200px" height="595.459px" viewBox="0 0 2200 595.459" enable-background="new 0 0 2200 595.459"
	 xml:space="preserve">
<rect id="bg" x="-400" y="-1202.271" display="none" fill-rule="evenodd" clip-rule="evenodd" fill="#FFFFFF" width="3000" height="3000"/>
<g id="The_Logo">
	<path id="logomark" fill-rule="evenodd" clip-rule="evenodd" fill="#190C4C" d="M1019.344,474.775l-76.888-141.638
		c40.975-14.669,70.817-50.077,70.817-102.179c0-69.81-54.126-110.278-116.85-110.278H750.737v354.095h55.139V340.727h83.97
		l68.29,134.049H1019.344L1019.344,474.775z M805.876,169.749h84.983c39.455,0,66.266,24.788,66.266,61.714
		s-26.811,61.208-66.266,61.208h-84.983V169.749L805.876,169.749z M1162.602,217.299c-74.866,0-131.014,57.668-131.014,132.534
		c0,72.844,56.653,131.014,131.014,131.014c41.988,0,83.468-17.704,106.734-50.077l-32.373-27.315
		c-16.187,20.74-43.502,33.891-74.361,33.891c-41.479,0-76.383-27.314-81.948-73.856h208.413c0.504-6.575,0.504-12.138,0.504-18.209
		C1288.053,266.367,1234.941,217.299,1162.602,217.299L1162.602,217.299z M1162.602,258.779c41.479,0,70.821,25.799,79.419,69.806
		h-160.355C1089.254,286.601,1120.618,258.779,1162.602,258.779L1162.602,258.779z M1396.403,474.775h59.692l103.194-250.394
		h-56.148l-76.888,197.282l-77.396-197.282h-56.152L1396.403,474.775L1396.403,474.775z M1614.022,178.855
		c16.69,0,30.859-13.66,30.859-30.857c0-16.187-14.169-29.846-30.859-29.846c-16.691,0-30.351,13.66-30.351,29.846
		C1583.671,165.196,1597.331,178.855,1614.022,178.855L1614.022,178.855z M1588.224,474.775h52.1V224.381h-52.1V474.775
		L1588.224,474.775z M1772.958,474.775h59.691l103.194-250.394h-56.147l-76.893,197.282l-77.393-197.282h-56.149L1772.958,474.775
		L1772.958,474.775z M2073.031,217.299c-74.865,0-131.014,57.668-131.014,132.534c0,72.844,56.653,131.014,131.014,131.014
		c41.988,0,83.468-17.704,106.734-50.077l-32.373-27.315c-16.187,20.74-43.502,33.891-74.361,33.891
		c-41.475,0-76.383-27.314-81.949-73.856h208.414c0.505-6.575,0.505-12.138,0.505-18.209
		C2198.483,266.367,2145.37,217.299,2073.031,217.299L2073.031,217.299z M2073.031,258.779c41.483,0,70.821,25.799,79.419,69.806
		h-160.355C1999.683,286.601,2031.047,258.779,2073.031,258.779z"/>
	<linearGradient id="logotype_1_" gradientUnits="userSpaceOnUse" x1="106.374" y1="523.7441" x2="415.0558" y2="16.3089">
		<stop  offset="0" style="stop-color:#B80006"/>
		<stop  offset="0.5131" style="stop-color:#EF3125"/>
		<stop  offset="1" style="stop-color:#FFC00A"/>
	</linearGradient>
	<path id="logotype" fill-rule="evenodd" clip-rule="evenodd" fill="url(#logotype_1_)" d="M312.563,0
		c164.431,0,297.729,133.297,297.729,297.729c0,29.301-4.254,57.604-12.14,84.351c-33.972,49.715-91.101,82.349-155.859,82.349
		c-30.898,0-60.063-7.431-85.801-20.598l-1.381-0.761c80.129-36.467,135.84-117.236,135.84-211.015
		c0-120.081-91.343-218.829-208.335-230.561C292.465,0.507,302.454,0,312.563,0L312.563,0z M335.039,223.187
		c34.188,0,64.638,15.993,84.288,40.902c0.297-3.754,0.454-7.546,0.454-11.377c0-63.957-42.389-118.005-100.604-135.604
		c-19.768-52.089-69.365-89.49-127.936-91.335l-4.541-0.079H0c38.81,11.784,72.559,35.235,97.14,66.262l0.155,0.197l-0.024,0.016
		c-40.907,25.313-72.236,64.61-87.33,111.218c29.055-16.604,60.551-23.773,93.931-20.186c-50.5,30.316-84.304,85.605-84.304,148.802
		c0,24.003,4.494,43.144,12.303,65.189c20.992,59.224,60.193,109.835,110.881,145.097c-16.066-30.335-25.177-64.917-25.177-101.636
		C117.575,320.548,214.936,223.187,335.039,223.187L335.039,223.187z M437.632,567.973c34.379-15.942,65.21-38.245,90.971-65.405
		c-26.819,10.213-55.906,15.82-86.31,15.82c-112.467,0-207.049-76.534-234.534-180.363c-22.654,28.061-36.228,63.758-36.228,102.629
		c0,69.56,43.443,128.967,104.671,152.592c11.92,1.452,24.05,2.214,36.361,2.214C357.239,595.459,399.604,585.604,437.632,567.973z"
		/>
</g>
</svg>
