<?xml version="1.0" standalone="no"?>
<!DOCTYPE svg PUBLIC "-//W3C//DTD SVG 20010904//EN"
 "http://www.w3.org/TR/2001/REC-SVG-20010904/DTD/svg10.dtd">
<svg version="1.0" xmlns="http://www.w3.org/2000/svg"
 width="1800.000000pt" height="1800.000000pt" viewBox="0 0 1800.000000 1800.000000"
 preserveAspectRatio="xMidYMid meet">
<metadata>
Created by potrace 1.14, written by Peter Selinger 2001-2017
</metadata>
<g transform="translate(0.000000,1800.000000) scale(0.100000,-0.100000)"
fill="#000000" stroke="none">
<path d="M8898 17776 c-1 -2 -70 -7 -153 -10 -82 -4 -166 -9 -185 -11 -19 -2
-73 -6 -120 -10 -92 -7 -117 -15 -54 -16 21 0 48 -2 59 -4 11 -2 43 -7 70 -10
279 -34 746 -128 970 -195 365 -109 661 -214 915 -326 145 -64 491 -240 648
-331 173 -99 415 -252 420 -265 2 -5 10 -8 18 -8 8 0 14 -4 14 -8 0 -5 10 -13
23 -19 26 -12 367 -267 447 -334 29 -24 76 -64 104 -88 28 -24 75 -65 105 -90
65 -55 476 -463 547 -541 122 -138 252 -296 367 -450 56 -74 104 -137 107
-140 11 -9 226 -335 271 -408 423 -697 705 -1408 868 -2193 32 -155 36 -178
46 -249 3 -25 8 -52 10 -60 3 -8 7 -35 10 -60 3 -25 7 -54 9 -65 2 -12 7 -48
11 -80 4 -33 9 -73 11 -90 2 -16 6 -59 10 -95 3 -36 7 -81 9 -100 20 -169 27
-750 13 -990 -13 -216 -31 -399 -54 -541 -2 -14 -6 -41 -8 -60 -19 -143 -63
-377 -97 -519 -12 -47 -22 -93 -24 -102 -16 -80 -105 -387 -155 -538 -32 -95
-100 -284 -110 -305 -5 -11 -25 -60 -45 -110 -136 -337 -355 -764 -531 -1038
-24 -37 -44 -70 -44 -73 0 -3 -5 -10 -10 -17 -6 -7 -58 -82 -117 -167 -248
-362 -468 -626 -793 -951 -178 -179 -286 -279 -420 -390 -41 -34 -77 -65 -80
-68 -9 -12 -309 -241 -385 -294 -308 -216 -644 -415 -968 -572 -111 -54 -145
-75 -135 -83 28 -23 341 -166 503 -229 237 -93 581 -203 707 -227 13 -2 50
-11 83 -19 60 -16 89 -22 155 -33 19 -3 38 -8 41 -9 6 -4 225 -40 299 -50 25
-3 56 -8 70 -10 14 -2 57 -7 95 -11 39 -3 84 -8 100 -10 271 -33 885 -22 1200
22 390 53 699 123 1030 233 192 63 258 86 290 100 11 5 76 33 145 62 229 95
545 257 729 373 22 15 45 26 51 26 5 0 10 5 10 10 0 6 6 10 14 10 8 0 16 3 18
8 2 4 57 43 123 86 152 101 393 282 491 371 6 5 40 35 75 65 77 66 249 231
333 319 96 100 97 102 166 181 36 41 67 77 70 80 33 32 245 307 329 427 12 18
33 72 47 120 13 49 31 111 39 138 64 222 181 803 210 1045 4 30 8 57 10 60 1
3 6 41 10 84 4 43 8 88 11 99 2 11 6 49 9 86 3 36 10 113 15 171 31 331 34
1228 5 1375 -2 11 -7 63 -10 115 -4 52 -8 104 -10 115 -3 11 -7 49 -10 85 -3
36 -7 79 -10 95 -2 17 -7 50 -10 75 -10 90 -17 137 -35 245 -10 61 -21 126
-24 145 -3 19 -10 60 -16 90 -6 30 -13 69 -16 85 -3 17 -16 82 -31 145 -14 63
-27 124 -29 135 -7 36 -58 236 -108 420 -16 57 -82 273 -111 360 -59 179 -191
530 -240 641 -8 16 -29 66 -48 110 -323 749 -809 1525 -1366 2179 -239 281
-596 645 -870 885 -40 36 -79 70 -85 75 -11 11 -178 150 -206 172 -8 7 -44 35
-80 63 -36 28 -74 59 -84 67 -73 60 -316 234 -469 336 -446 299 -917 558
-1371 754 -44 18 -94 40 -110 48 -96 43 -482 188 -636 238 -261 85 -611 185
-710 203 -14 3 -31 7 -39 10 -13 4 -210 48 -263 58 -107 20 -206 39 -223 42
-31 6 -66 12 -110 19 -23 3 -50 7 -60 9 -25 5 -87 14 -140 21 -22 3 -56 7 -75
10 -170 22 -299 35 -500 50 -47 3 -110 8 -140 11 -60 6 -826 14 -832 10z"/>
<path d="M47 17022 c-19 -2 22 -20 140 -61 506 -175 911 -376 1358 -674 86
-57 294 -205 305 -217 3 -3 39 -32 80 -65 41 -32 80 -64 86 -70 6 -5 36 -30
65 -55 85 -72 158 -137 247 -224 190 -184 324 -328 475 -512 l66 -81 -112 -73
c-476 -313 -844 -630 -1242 -1071 -142 -156 -343 -417 -486 -629 -95 -141
-169 -257 -169 -265 0 -2 -15 -28 -33 -57 -70 -111 -217 -395 -299 -578 -64
-142 -168 -405 -183 -460 -1 -3 -5 -12 -8 -20 -17 -39 -38 -112 -34 -116 2 -3
60 25 128 62 68 37 155 81 194 99 38 18 95 44 125 58 67 30 312 127 395 155
76 26 298 90 330 96 14 3 28 7 33 10 7 4 211 47 287 61 17 2 39 7 50 9 11 2
45 7 75 11 30 4 62 9 70 10 8 1 47 6 85 10 39 4 84 9 100 11 192 20 688 20
800 -1 11 -2 36 -4 55 -4 33 -1 24 -8 -120 -102 -226 -147 -422 -298 -645
-494 -45 -40 -242 -233 -311 -306 -373 -394 -720 -919 -944 -1430 -44 -100
-110 -264 -110 -275 0 -3 -6 -20 -14 -37 -40 -92 -140 -424 -171 -567 -2 -8
-8 -35 -14 -60 -11 -52 -14 -65 -46 -230 -3 -13 -7 -42 -10 -65 -3 -22 -10
-65 -15 -95 -5 -30 -12 -80 -15 -110 -4 -30 -8 -68 -10 -85 -4 -28 -11 -128
-20 -260 -6 -75 -6 -506 -1 -560 3 -22 7 -80 10 -130 4 -49 8 -103 11 -120 3
-16 7 -55 10 -85 6 -65 8 -76 35 -240 12 -69 30 -165 42 -215 11 -49 21 -98
23 -107 10 -48 70 -266 100 -363 156 -502 312 -893 536 -1345 132 -264 208
-404 348 -633 53 -87 101 -166 106 -176 19 -32 204 -306 255 -376 27 -38 58
-81 67 -95 20 -28 211 -279 227 -297 6 -7 16 -18 21 -25 143 -184 419 -491
631 -702 322 -322 465 -445 959 -834 6 -4 51 -36 100 -72 50 -35 100 -73 112
-84 13 -11 23 -16 23 -12 0 4 -35 80 -79 169 -43 89 -93 196 -111 237 -18 41
-38 89 -45 105 -151 349 -333 957 -391 1305 -2 14 -7 41 -10 60 -9 52 -21 131
-39 250 -5 36 -22 180 -30 260 -28 277 -28 988 0 1205 2 17 6 55 10 85 10 101
15 145 21 180 3 19 8 49 10 65 2 17 8 62 14 100 7 39 13 80 15 93 2 12 6 30 9
40 3 9 7 33 10 52 9 55 16 92 26 130 5 19 11 49 14 65 8 43 70 283 101 390 79
273 204 609 317 855 112 244 302 593 418 770 27 41 54 84 60 95 10 21 62 96
158 229 54 74 273 353 319 406 12 14 31 36 42 49 159 185 420 446 626 626 44
39 82 72 85 76 3 3 39 32 80 64 41 33 77 62 80 65 7 7 78 62 110 85 16 11 81
58 147 105 112 81 398 270 408 270 2 0 29 16 59 35 30 19 57 35 59 35 2 0 43
22 91 50 47 27 105 59 129 70 23 11 49 25 57 30 31 20 273 132 411 191 155 65
489 189 512 189 7 0 17 3 21 7 3 4 12 8 19 9 7 1 32 9 57 17 42 14 112 34 250
71 171 46 161 43 295 70 11 3 40 9 65 15 52 11 314 57 378 65 44 6 180 22 262
31 361 42 985 36 1150 -10 8 -2 33 -6 55 -10 145 -21 369 -83 555 -152 418
-157 809 -411 1129 -734 57 -57 181 -194 213 -234 l23 -29 6 29 c7 35 3 629
-4 665 -3 14 -8 57 -12 95 -9 102 -36 280 -55 365 -6 25 -12 54 -14 65 -4 17
-28 123 -41 175 -2 8 -14 47 -25 85 -12 39 -25 84 -30 100 -61 232 -274 701
-424 935 -51 79 -162 246 -173 260 -6 8 -46 60 -89 115 -106 137 -213 259
-355 404 -293 298 -727 606 -1116 792 -70 34 -135 65 -144 69 -59 30 -364 145
-409 155 -54 12 -68 25 -93 87 -104 261 -253 543 -410 778 -47 70 -223 309
-236 320 -3 3 -31 34 -61 70 -64 76 -68 80 -181 196 -412 425 -911 758 -1459
975 -246 97 -563 187 -790 224 -19 3 -42 8 -50 10 -8 2 -35 6 -60 9 -25 3 -54
8 -65 10 -11 2 -54 7 -95 11 -41 4 -83 9 -93 11 -71 13 -644 17 -3066 18
-1510 0 -2758 0 -2774 -2z"/>
<path d="M6090 7762 c-19 -26 -38 -49 -41 -52 -22 -18 -309 -440 -309 -454 0
-3 -21 -40 -46 -83 -63 -106 -193 -364 -247 -493 -114 -270 -216 -585 -273
-845 -9 -38 -18 -81 -20 -95 -2 -14 -9 -49 -15 -79 -11 -56 -13 -63 -23 -141
-3 -25 -8 -54 -10 -65 -2 -11 -7 -49 -11 -85 -4 -36 -9 -78 -11 -95 -26 -199
-26 -786 1 -1000 2 -16 7 -55 10 -85 4 -30 8 -61 10 -70 1 -8 6 -37 9 -63 4
-27 9 -56 11 -65 1 -10 8 -51 15 -92 7 -41 19 -100 26 -130 8 -30 17 -71 20
-90 3 -19 7 -42 10 -50 3 -8 16 -56 29 -106 31 -116 83 -284 95 -306 6 -10 10
-23 10 -29 0 -6 30 -86 66 -177 153 -386 353 -746 611 -1101 26 -36 182 -232
196 -246 7 -6 44 -48 82 -93 239 -276 603 -590 952 -820 210 -139 465 -278
683 -374 63 -27 133 -58 155 -68 22 -9 49 -20 60 -23 20 -6 167 -23 280 -33
33 -3 80 -7 105 -9 315 -28 1125 -28 1390 -1 19 2 73 7 119 10 46 4 100 9 120
11 56 7 191 24 246 31 28 3 58 8 69 10 10 2 44 6 75 10 31 3 58 8 61 9 3 2 30
6 60 10 30 3 71 10 90 15 19 5 53 12 75 15 22 4 49 8 60 10 76 13 333 70 450
100 77 19 148 38 159 40 169 39 796 246 941 310 17 7 95 40 175 73 321 132
809 377 1045 523 17 10 37 22 45 26 8 3 38 21 65 38 28 18 95 60 150 94 193
120 521 351 710 500 69 55 349 286 371 306 6 5 55 51 110 100 54 50 112 103
129 118 74 69 344 341 341 344 -2 2 -34 -8 -72 -22 -67 -25 -362 -123 -454
-150 -323 -95 -790 -191 -1125 -230 -27 -4 -61 -8 -75 -10 -14 -2 -61 -7 -104
-10 -44 -4 -94 -8 -110 -10 -191 -26 -1061 -26 -1195 0 -9 1 -54 6 -101 10
-47 4 -93 9 -102 10 -9 2 -48 7 -85 10 -37 4 -77 9 -88 11 -18 4 -92 15 -198
30 -78 12 -552 112 -602 128 -5 1 -23 6 -40 11 -521 133 -1162 388 -1621 645
-321 180 -579 348 -869 566 -124 92 -314 245 -361 289 -6 5 -44 39 -84 75
-120 105 -371 351 -490 479 -32 35 -181 202 -202 227 -13 15 -37 44 -54 63
-56 65 -210 264 -291 376 -469 648 -830 1372 -1052 2115 -29 96 -58 191 -64
212 l-12 36 -35 -46z"/>
</g>
</svg>
