<svg width="32" height="32" viewBox="0 0 32 32" fill="none" xmlns="http://www.w3.org/2000/svg">
<path d="M0 16C0 24.8366 7.16344 32 16 32C24.8366 32 32 24.8366 32 16C32 7.16344 24.8366 0 16 0C7.16344 0 0 7.16344 0 16Z" fill="white"/>
<path d="M10.9638 12.7522C10.9797 12.5954 10.9199 12.4404 10.8028 12.3349L9.61022 10.8982V10.6836H13.3132L16.1754 16.9608L18.6918 10.6836H22.2219V10.8982L21.2022 11.8758C21.1143 11.9429 21.0707 12.053 21.0889 12.162V19.3453C21.0707 19.4543 21.1143 19.5644 21.2022 19.6314L22.198 20.6091V20.8237H17.1891V20.6091L18.2207 19.6076C18.3221 19.5063 18.3221 19.4765 18.3221 19.3215V13.5152L15.4539 20.7999H15.0663L11.7271 13.5152V18.3975C11.6992 18.6027 11.7674 18.8094 11.9119 18.9578L13.2536 20.5853V20.7999H9.44922V20.5853L10.7909 18.9578C10.9344 18.8091 10.9985 18.6011 10.9638 18.3975V12.7522Z" fill="#12100E"/>
</svg>
